<!--?xml version="1.0" standalone="no"?-->
              <svg id="sw-js-blob-svg" viewBox="0 0 100 100" xmlns="http://www.w3.org/2000/svg" version="1.1">
                    <defs> 
                        <linearGradient id="sw-gradient" x1="0" x2="1" y1="1" y2="0">
                            <stop id="stop1" stop-color="rgba(0, 0, 0, 1)" offset="0%"></stop>
                            <stop id="stop2" stop-color="rgba(255, 255, 255, 1)" offset="100%"></stop>
                        </linearGradient>
                    </defs>
                <path fill="url(#sw-gradient)" d="M25.8,-31.5C32.4,-25.3,35.9,-16.1,34.7,-8.3C33.5,-0.4,27.7,6.1,23.6,14.2C19.6,22.3,17.4,32,11.8,35.3C6.2,38.7,-2.9,35.7,-12.3,32.7C-21.8,29.7,-31.6,26.9,-35.7,20.3C-39.8,13.8,-38.1,3.7,-34.3,-4C-30.4,-11.6,-24.4,-16.8,-18.4,-23.1C-12.3,-29.4,-6.2,-36.7,1.7,-38.8C9.6,-40.9,19.3,-37.7,25.8,-31.5Z" width="100%" height="100%" transform="translate(50 50)" stroke-width="0" style="transition: all 0.3s ease 0s;" stroke="url(#sw-gradient)"></path>
              </svg>